PathFileType	4	(X/Y/Z)	intermediate\S1_nor_fast_left\tmpqolbj2xf.trc
DataRate	CameraRate	NumFrames	NumMarkers	Units	OrigDataRate	OrigDataStartFrame	OrigNumFrames
250.0	250.0	17	18	mm	250.0	928	3710
Frame#	Time	c7			r_should			l_should			clavicle			r_upa			r_elb_l			r_elb_m			r_low			r_wri_l			r_wri_m			r_met			l_upa			l_elb_l			l_elb_m			l_low			l_wri_l			l_wri_m			l_met			
		X	Y	Z	X	Y	Z	X	Y	Z	X	Y	Z	X	Y	Z	X	Y	Z	X	Y	Z	X	Y	Z	X	Y	Z	X	Y	Z	X	Y	Z	X	Y	Z	X	Y	Z	X	Y	Z	X	Y	Z	X	Y	Z	X	Y	Z	X	Y	Z	
928	3.708000	951.270203	1423.712769	146.980347	1043.659668	1356.536011	322.116028	974.890930	1350.834595	-47.395908	1086.701904	1303.201904	124.001984	1048.220581	1144.202271	368.614136	1071.357910	1041.778076	370.645325	989.522949	1025.539307	309.675201	1027.415161	912.959229	392.331085	1099.584717	820.294800	349.225922	1036.000366	809.400024	383.157867	1129.372070	733.927917	360.859985	984.418030	1124.553711	-65.553078	995.010864	1046.920044	-73.910332	nan	nan	nan	1040.205566	905.305847	-52.853786	1140.958618	874.422058	-86.485397	1117.828003	837.297729	-30.129402	1179.133179	813.668396	-113.680061	
929	3.712000	950.869873	1423.707397	147.267349	1043.487793	1356.473267	322.239990	973.959961	1350.990234	-47.166592	1086.294678	1303.241821	124.032616	1048.116211	1144.113403	368.684235	1071.295044	1041.699341	370.685272	989.432312	1025.465210	309.741974	1027.406982	912.867004	392.328491	1099.602295	820.238586	349.150787	1036.019043	809.317261	383.119995	1129.423828	733.867676	360.720978	983.502808	1124.584229	-65.052231	994.184204	1047.162476	-73.200630	nan	nan	nan	1040.785767	906.222961	-52.449158	1141.812256	876.430054	-86.552757	1119.411133	839.062744	-30.297861	1180.713867	816.277832	-114.039253	
930	3.716000	950.476196	1423.706787	147.553131	1043.299683	1356.416992	322.357117	973.047119	1351.108032	-46.932320	1085.890869	1303.289185	124.061928	1047.998047	1144.026978	368.741547	1071.210571	1041.618286	370.726715	989.325134	1025.397583	309.823730	1027.395142	912.777649	392.325195	1099.620850	820.186646	349.073059	1036.036011	809.234070	383.075867	1129.472046	733.816040	360.580353	982.611694	1124.590088	-64.538429	993.353943	1047.393311	-72.457825	nan	nan	nan	1041.348877	907.123474	-52.027164	1142.617920	878.435608	-86.617317	1121.024414	840.872620	-30.480349	1182.280762	818.923584	-114.355797	
931	3.720000	950.091370	1423.708618	147.813950	1043.101562	1356.364014	322.481049	972.162537	1351.191650	-46.715534	1085.487671	1303.338013	124.086349	1047.864014	1143.955811	368.809418	1071.118774	1041.546387	370.775238	989.212891	1025.328613	309.886444	1027.377930	912.680298	392.323364	1099.636353	820.142029	348.998291	1036.047852	809.157288	383.030426	1129.522339	733.767761	360.439148	981.764343	1124.602051	-64.047531	992.525513	1047.606934	-71.693451	nan	nan	nan	1041.916016	908.046021	-51.614296	1143.426636	880.452393	-86.685822	1122.641602	842.687683	-30.649860	1183.838257	821.611206	-114.651146	
932	3.724000	949.721558	1423.731934	148.059921	1042.882324	1356.315674	322.611786	971.324219	1351.260376	-46.530628	1085.090698	1303.375977	124.127510	1047.714355	1143.879639	368.895569	1071.014282	1041.472046	370.825531	989.090759	1025.282715	309.944427	1027.349487	912.594421	392.316925	1099.645508	820.102905	348.915924	1036.060791	809.090271	382.983612	1129.569458	733.723022	360.280609	980.927734	1124.580200	-63.529327	991.716614	1047.804077	-70.934029	nan	nan	nan	1042.495850	908.960571	-51.221855	1144.227783	882.510986	-86.755005	1124.259155	844.535339	-30.780643	1185.391479	824.317932	-114.974030	
933	3.728000	949.345520	1423.752563	148.327133	1042.651978	1356.272461	322.752899	970.515198	1351.318604	-46.342274	1084.704834	1303.414795	124.184456	1047.565063	1143.806763	368.981842	1070.908813	1041.399170	370.881439	988.977783	1025.231689	310.003143	1027.315430	912.513733	392.305542	1099.649170	820.069580	348.828461	1036.072510	809.028870	382.936768	1129.606445	733.690735	360.129059	980.108459	1124.507568	-63.014217	990.935303	1047.990967	-70.189148	nan	nan	nan	1043.098633	909.871338	-50.820141	1145.027466	884.597290	-86.808624	1125.889526	846.437805	-30.915220	1186.871826	827.097839	-115.282600	
934	3.732000	948.964966	1423.764648	148.591736	1042.416870	1356.232544	322.893890	969.718567	1351.360962	-46.151707	1084.314941	1303.460815	124.228821	1047.413452	1143.740234	369.071686	1070.799927	1041.353638	370.925262	988.852173	1025.184814	310.064270	1027.267944	912.441040	392.288147	1099.646362	820.043518	348.735199	1036.076782	808.966309	382.884613	1129.639893	733.664490	359.973022	979.335327	1124.439941	-62.531353	990.163025	1048.162598	-69.464859	nan	nan	nan	1043.712769	910.782227	-50.422096	1145.826782	886.705505	-86.856056	1127.550415	848.409485	-31.055729	1188.311523	829.958801	-115.550278	
935	3.736000	948.573364	1423.769165	148.859680	1042.186035	1356.200195	323.043243	968.949585	1351.373413	-45.958214	1083.927856	1303.500366	124.283195	1047.245483	1143.688843	369.159241	1070.684448	1041.309937	370.966827	988.710999	1025.154053	310.130127	1027.223511	912.364502	392.264679	1099.635620	820.023682	348.634064	1036.080933	808.904785	382.828125	1129.665894	733.645813	359.798370	978.339417	1124.291138	-61.788212	989.386597	1048.319702	-68.738655	nan	nan	nan	1044.312256	911.800720	-50.214493	1146.556030	888.977966	-87.217888	1129.222778	850.426331	-31.200424	1189.779785	832.832153	-115.823982	
936	3.740000	948.187744	1423.769653	149.120865	1041.954956	1356.171631	323.188690	968.197876	1351.357544	-45.761787	1083.540405	1303.529663	124.347610	1047.071533	1143.630615	369.232483	1070.562012	1041.262207	370.996674	988.578918	1025.123047	310.186676	1027.182983	912.284241	392.240356	1099.619019	820.005310	348.526733	1036.081055	808.843567	382.767456	1129.687012	733.625427	359.617615	977.001404	1124.046875	-60.664436	988.638245	1048.452637	-67.997993	982.536011	1018.134583	27.917376	1044.903809	912.992188	-50.240242	1147.189331	891.488525	-87.997841	1130.882690	852.452881	-31.296350	1191.213257	835.710510	-116.127571	
937	3.744000	947.803162	1423.755981	149.373337	1041.720093	1356.148804	323.327850	967.462036	1351.333252	-45.562160	1083.164551	1303.549072	124.413849	1046.894165	1143.578125	369.307068	1070.438232	1041.214844	371.024384	988.454346	1025.082275	310.243652	1027.133423	912.213318	392.209961	1099.601440	819.988281	348.406158	1036.074829	808.783142	382.695496	1129.700928	733.609070	359.434814	976.095093	1123.909912	-60.000748	987.911804	1048.556641	-67.246834	982.297913	1018.170715	28.382370	1045.573853	914.042847	-49.983540	1147.986572	893.879639	-88.287659	1132.489014	854.500793	-31.385227	1192.569214	838.658386	-116.437347	
938	3.748000	947.426086	1423.744873	149.606842	1041.484375	1356.124878	323.464172	966.752991	1351.288452	-45.371521	1082.803589	1303.575562	124.490379	1046.731323	1143.533936	369.376556	1070.328247	1041.178955	371.052612	988.312378	1025.062988	310.310913	1027.033325	912.195435	392.155670	1099.579224	819.977173	348.280121	1036.062744	808.728943	382.616699	1129.709351	733.597168	359.248932	975.330566	1123.794556	-59.470482	987.185608	1048.662231	-66.545815	982.166931	1018.230530	28.758297	1046.347900	914.884705	-49.398659	1148.761353	896.222717	-88.515793	1134.100952	856.608154	-31.496807	1193.887939	841.653442	-116.740433	
939	3.752000	947.049622	1423.740601	149.821167	1041.243042	1356.097900	323.589325	966.060608	1351.212158	-45.187042	1082.441284	1303.606689	124.576080	1046.565308	1143.485596	369.443298	1070.207642	1041.141113	371.065033	988.192261	1025.022583	310.352814	1026.873779	912.232300	392.074493	1099.551636	819.964600	348.145966	1036.049194	808.678528	382.538788	1129.724976	733.586243	359.055634	974.592285	1123.664185	-58.974964	986.465576	1048.765137	-65.860924	nan	nan	nan	1047.233276	915.515564	-48.453518	1149.430054	898.543701	-88.770836	1135.674438	858.805725	-31.682394	1195.225708	844.668213	-117.055656	
940	3.756000	946.658264	1423.723755	150.021286	1040.994385	1356.078491	323.709473	965.386047	1351.100952	-44.999615	1082.070312	1303.639526	124.651230	1046.379150	1143.441895	369.504059	1070.080322	1041.098877	371.075623	988.078857	1024.980957	310.377716	1026.788452	912.192444	392.011169	1099.520264	819.956665	348.000916	1036.032715	808.634399	382.454102	1129.742920	733.590454	358.853760	973.868469	1123.517090	-58.501423	985.744812	1048.877930	-65.170105	nan	nan	nan	1048.004639	916.375366	-48.028023	1150.166748	900.993103	-88.949844	1137.210815	861.045959	-31.870823	1196.525024	847.713684	-117.394753	
941	3.760000	946.270386	1423.688232	150.200027	1040.741699	1356.069092	323.822876	964.740906	1350.968018	-44.812996	1081.712769	1303.673828	124.727600	1046.205933	1143.408691	369.558380	1069.957886	1041.065918	371.089630	987.976074	1024.941406	310.381317	1026.723022	912.141418	391.949585	1099.483643	819.954102	347.854309	1036.023804	808.592773	382.371887	1129.756592	733.602417	358.656525	973.172180	1123.352173	-58.051712	985.049927	1048.986816	-64.501053	nan	nan	nan	1048.746460	917.321716	-47.757980	1150.878540	903.364685	-89.211899	1138.723633	863.306335	-32.046890	1197.748901	850.816345	-117.725166	
942	3.764000	945.880310	1423.647827	150.359116	1040.466675	1356.068848	323.933228	964.152344	1350.822388	-44.643372	1081.368652	1303.724243	124.815834	1046.026978	1143.377197	369.616547	1069.837036	1041.037354	371.104858	987.863953	1024.913696	310.394684	1026.658081	912.086426	391.891754	1099.448730	819.959045	347.713318	1036.018433	808.553101	382.293671	1129.765137	733.622070	358.462463	972.491760	1123.166626	-57.628418	984.385620	1049.070801	-63.874931	980.723145	1018.287415	31.018438	1049.484741	918.086731	-47.416599	1151.534424	905.620789	-89.592903	1140.622559	865.847473	-31.770788	1198.865601	853.829224	-118.068832	
943	3.768000	945.484131	1423.610229	150.527924	1040.173096	1356.075562	324.035126	963.616028	1350.654419	-44.512577	1081.029297	1303.781494	124.910606	1045.840210	1143.357910	369.686768	1069.711670	1041.022095	371.114075	987.734070	1024.894775	310.423859	1026.595337	912.031067	391.831146	1099.414062	819.964233	347.576996	1036.013550	808.522949	382.217316	1129.564697	733.392090	358.040039	971.817200	1122.963501	-57.236538	983.729492	1049.131348	-63.257046	980.435486	1018.357300	31.377819	1050.237793	918.612000	-46.957905	1152.216187	908.126160	-89.836586	1143.038452	868.809448	-30.848522	1199.895630	856.655151	-118.392288	
944	3.772000	945.091248	1423.580322	150.674667	1039.871948	1356.091553	324.135193	963.125183	1350.469971	-44.405773	1080.699463	1303.832520	125.006241	1045.644897	1143.341919	369.743195	1069.591553	1041.005615	371.110260	987.608521	1024.873535	310.437866	1026.572998	911.933289	391.784332	1099.378418	819.973816	347.448456	1036.009277	808.499268	382.150116	1129.100098	732.860779	357.351227	971.162231	1122.740723	-56.856407	983.071655	1049.194824	-62.687336	980.220581	1018.408997	31.649719	1051.003540	919.546448	-46.734879	1152.879517	910.698669	-90.057770	1144.791382	871.367676	-30.671644	1201.016846	859.714233	-118.669678	
